<?xml version="1.0" standalone="no"?>
<!DOCTYPE svg PUBLIC "-//W3C//DTD SVG 20010904//EN"
 "http://www.w3.org/TR/2001/REC-SVG-20010904/DTD/svg10.dtd">
<svg version="1.0" xmlns="http://www.w3.org/2000/svg"
 width="210.000000pt" height="210.000000pt" viewBox="0 0 210.000000 210.000000"
 preserveAspectRatio="xMidYMid meet">
<metadata>
Created by potrace 1.14, written by Peter Selinger 2001-2017
</metadata>
<g transform="translate(0.000000,210.000000) scale(0.100000,-0.100000)"
fill="#000000" stroke="none">
<path d="M920 1564 c-75 -10 -209 -48 -291 -83 -120 -52 -220 -121 -319 -221
-184 -184 -288 -409 -306 -662 l-6 -78 211 0 211 0 0 29 c0 90 43 217 107 319
180 286 594 367 878 172 115 -79 221 -226 250 -345 4 -16 9 -39 12 -50 7 -30
10 -57 12 -92 l1 -33 211 0 212 0 -7 86 c-20 246 -127 475 -306 654 -196 197
-430 298 -705 305 -71 2 -146 1 -165 -1z m316 -123 c210 -42 408 -163 546
-334 85 -104 152 -243 182 -375 25 -109 30 -102 -83 -102 l-99 0 -7 43 c-29
169 -166 367 -326 470 -123 79 -222 108 -376 112 -130 4 -226 -13 -322 -57
-131 -60 -262 -176 -335 -296 -45 -74 -92 -202 -95 -259 -1 -10 -28 -13 -101
-13 -117 0 -112 -7 -79 123 91 358 381 625 752 692 80 15 262 13 343 -4z"/>
</g>
</svg>
